# xmcd
#
# Track frame offsets:
#	150
#	16749
#	34120
#	47768
#	61975
#	76323
#	94558
#	110365
#	124096
#	136173
#
# Disc length: 2018 seconds
#
# Revision: 1
# Processed by: cddbd v1.4PL0 Copyright (c) Steve Scherf et al.
# Submitted via: audiograbber 1.82.01
#
DISCID=7307e00a
DTITLE=Brad Martin - Wings Of A Honky Tonk Angel
DYEAR=2002
DGENRE=Country
TTITLE0=Before I Knew Better
TTITLE1=Completely
TTITLE2=Rub Me The Right Way
TTITLE3=On The Wings Of A Honky Tonk Angel
TTITLE4=Run To Me
TTITLE5=The Fifth
TTITLE6=Just Like Love
TTITLE7=That's A Woman
TTITLE8=Damn The Whiskey
TTITLE9=Wait
EXTD=
EXTT0=
EXTT1=
EXTT2=
EXTT3=
EXTT4=
EXTT5=
EXTT6=
EXTT7=
EXTT8=
EXTT9=
PLAYORDER=
